<svg width="37" height="36" viewBox="0 0 37 36" fill="none" xmlns="http://www.w3.org/2000/svg">
<path opacity="0.4" d="M27.425 11.5649L27.215 11.4449L25.13 10.2449L20.825 7.7549C19.505 6.9899 17.495 6.9899 16.175 7.7549L11.87 10.2449L9.78502 11.4599L9.51502 11.6099C6.83002 13.4099 6.65002 13.7399 6.65002 16.6349V23.5499C6.65002 26.4449 6.83002 26.7749 9.57502 28.6199L16.175 32.4299C16.835 32.8199 17.66 32.9999 18.5 32.9999C19.325 32.9999 20.165 32.8199 20.825 32.4299L27.485 28.5749C30.17 26.7749 30.35 26.4449 30.35 23.5499V16.6349C30.35 13.7399 30.17 13.4099 27.425 11.5649Z" fill="#2563EB"/>
<path d="M9.78497 11.46L11.87 10.245L15.98 7.875L16.175 7.755C17.495 6.99 19.505 6.99 20.825 7.755L21.02 7.875L25.13 10.245L27.215 11.445V8.235C27.215 4.86 25.355 3 21.98 3H15.005C11.63 3 9.78497 4.86 9.78497 8.235V11.46Z" fill="#2563EB"/>
<path d="M22.76 20.0099L21.83 21.1499C21.68 21.3149 21.575 21.6449 21.59 21.8699L21.68 23.3399C21.74 24.2399 21.095 24.7049 20.255 24.3749L18.89 23.8349C18.68 23.7599 18.32 23.7599 18.11 23.8349L16.745 24.3749C15.905 24.7049 15.26 24.2399 15.32 23.3399L15.41 21.8699C15.425 21.6449 15.32 21.3149 15.17 21.1499L14.24 20.0099C13.655 19.3199 13.91 18.5549 14.78 18.3299L16.205 17.9699C16.43 17.9099 16.7 17.6999 16.82 17.5049L17.615 16.2749C18.11 15.5099 18.89 15.5099 19.385 16.2749L20.18 17.5049C20.3 17.6999 20.57 17.9099 20.795 17.9699L22.22 18.3299C23.09 18.5549 23.345 19.3199 22.76 20.0099Z" fill="#2563EB"/>
</svg>
