<svg width="25" height="24" viewBox="0 0 25 24" fill="none" xmlns="http://www.w3.org/2000/svg">
<path d="M18.52 11.8002V8.91016C18.52 5.61016 15.82 2.91016 12.52 2.91016C9.20997 2.91016 6.51997 5.60016 6.51997 8.91016V11.8002C6.51997 12.4102 6.25997 13.3402 5.94997 13.8602L4.79997 15.7702C4.08997 16.9502 4.57997 18.2602 5.87997 18.7002C10.19 20.1402 14.84 20.1402 19.15 18.7002C20.36 18.3002 20.89 16.8702 20.23 15.7702" stroke="#2563EB" stroke-width="1.5" stroke-miterlimit="10" stroke-linecap="round"/>
<path d="M14.37 3.19994C14.06 3.10994 13.74 3.03994 13.41 2.99994C12.45 2.87994 11.53 2.94994 10.67 3.19994C10.96 2.45994 11.68 1.93994 12.52 1.93994C13.36 1.93994 14.08 2.45994 14.37 3.19994Z" stroke="#2563EB" stroke-width="1.5" stroke-miterlimit="10" stroke-linecap="round" stroke-linejoin="round"/>
<path d="M15.52 19.0601C15.52 20.7101 14.17 22.0601 12.52 22.0601C11.7 22.0601 10.94 21.7201 10.4 21.1801C9.86002 20.6401 9.52002 19.8801 9.52002 19.0601" stroke="#2563EB" stroke-width="1.5" stroke-miterlimit="10"/>
</svg>
