<svg width="25" height="24" viewBox="0 0 25 24" fill="none" xmlns="http://www.w3.org/2000/svg">
<path d="M15.41 14.12C17.21 13.08 17.21 11.38 15.41 10.34L13.96 9.49999L12.51 8.65999C10.71 7.61999 9.23999 8.46999 9.23999 10.55V12.22V13.89C9.23999 15.55 10.18 16.43 11.48 16.18" stroke="#656565" stroke-width="1.5" stroke-miterlimit="10" stroke-linecap="round" stroke-linejoin="round"/>
<path d="M4.5 6C3.25 7.67 2.5 9.75 2.5 12C2.5 17.52 6.98 22 12.5 22C18.02 22 22.5 17.52 22.5 12C22.5 6.48 18.02 2 12.5 2C11.07 2 9.7 2.3 8.47 2.85" stroke="#656565" stroke-width="1.5" stroke-linecap="round" stroke-linejoin="round"/>
</svg>
